<svg width="186" height="105" viewBox="0 0 186 105" fill="none" xmlns="http://www.w3.org/2000/svg">
<path d="M40 61.4L71 16.4H127L93 68.4L40 61.4ZM93 68.4H44H93ZM93 68.4L65 2H55H83.5L93 68.4ZM149.7 61C148.794 61 147.897 61.1785 147.059 61.5252C146.222 61.872 145.462 62.3802 144.821 63.021C144.18 63.6617 143.672 64.4223 143.325 65.2595C142.978 66.0966 142.8 66.9939 142.8 67.9C142.8 68.8061 142.978 69.7034 143.325 70.5405C143.672 71.3777 144.18 72.1383 144.821 72.779C145.462 73.4198 146.222 73.928 147.059 74.2748C147.897 74.6215 148.794 74.8 149.7 74.8C151.53 74.8 153.285 74.073 154.579 72.779C155.873 71.485 156.6 69.73 156.6 67.9C156.6 66.07 155.873 64.315 154.579 63.021C153.285 61.727 151.53 61 149.7 61V61ZM149.7 61L127.5 16.4V2H148C151.8 2 154.9 5.2 154.9 9C154.9 12.8 151.8 16 148 16H145.5L149.7 61ZM70.6 67.9C70.6 86.843 55.243 102.2 36.3 102.2C17.357 102.2 2 86.843 2 67.9C2 48.957 17.357 33.6 36.3 33.6C55.243 33.6 70.6 48.957 70.6 67.9ZM184 67.9C184 86.843 168.643 102.2 149.7 102.2C130.757 102.2 115.4 86.843 115.4 67.9C115.4 48.957 130.757 33.6 149.7 33.6C168.643 33.6 184 48.957 184 67.9ZM43.2 67.9C43.2 69.73 42.473 71.485 41.179 72.779C39.885 74.073 38.13 74.8 36.3 74.8C34.47 74.8 32.715 74.073 31.421 72.779C30.127 71.485 29.4 69.73 29.4 67.9C29.4 66.07 30.127 64.315 31.421 63.021C32.715 61.727 34.47 61 36.3 61C38.13 61 39.885 61.727 41.179 63.021C42.473 64.315 43.2 66.07 43.2 67.9Z" stroke="#9D32C9" stroke-width="4" stroke-miterlimit="10" stroke-linecap="round" stroke-linejoin="round"/>
</svg>
