<svg width="186" height="113" viewBox="0 0 186 113" fill="none" xmlns="http://www.w3.org/2000/svg">
<path d="M43.5 76.5H92.5H43.5ZM92.5 76.5L82.306 61L92.5 76.5ZM92.5 76.5C97 62.833 111.4 35.5 133 35.5L92.5 76.5ZM68.496 40L56 21L68.496 40ZM68.496 40C62 43 45 58 40 70.5L68.496 40ZM68.496 40L82.306 61L68.496 40ZM56 21H46H56ZM56 21H74H56ZM82.306 61C87.5 47.5 101.3 21 126.5 21H150L82.306 61ZM106 2H117L121.4 11L106 2ZM149 69.5L130.689 30L149 69.5ZM130.689 30H153L147 11H121.4L130.689 30ZM130.689 30L121.4 11L130.689 30ZM71 76.5C71 95.554 55.554 111 36.5 111C17.446 111 2 95.554 2 76.5C2 57.446 17.446 42 36.5 42C55.554 42 71 57.446 71 76.5ZM43 76.5C43 78.2239 42.3152 79.8772 41.0962 81.0962C39.8772 82.3152 38.2239 83 36.5 83C34.7761 83 33.1228 82.3152 31.9038 81.0962C30.6848 79.8772 30 78.2239 30 76.5C30 74.7761 30.6848 73.1228 31.9038 71.9038C33.1228 70.6848 34.7761 70 36.5 70C38.2239 70 39.8772 70.6848 41.0962 71.9038C42.3152 73.1228 43 74.7761 43 76.5V76.5ZM184 76.5C184 95.554 168.554 111 149.5 111C130.446 111 115 95.554 115 76.5C115 57.446 130.446 42 149.5 42C168.554 42 184 57.446 184 76.5ZM156 76.5C156 78.2239 155.315 79.8772 154.096 81.0962C152.877 82.3152 151.224 83 149.5 83C147.776 83 146.123 82.3152 144.904 81.0962C143.685 79.8772 143 78.2239 143 76.5C143 74.7761 143.685 73.1228 144.904 71.9038C146.123 70.6848 147.776 70 149.5 70C151.224 70 152.877 70.6848 154.096 71.9038C155.315 73.1228 156 74.7761 156 76.5V76.5Z" stroke="#9D32C9" stroke-width="4" stroke-linecap="round" stroke-linejoin="round"/>
</svg>
