<svg width="148" height="125" viewBox="0 0 148 125" fill="none" xmlns="http://www.w3.org/2000/svg">
<path d="M19.5 88C9.835 88 2 95.835 2 105.5C2 115.165 9.835 123 19.5 123C29.165 123 37 115.165 37 105.5C37 95.835 29.165 88 19.5 88ZM19.5 88C29.6 53.9 62.1 29 99.5 29L19.5 88ZM99.5 29C73.819 29 53 49.819 53 75.5C53 101.181 73.819 122 99.5 122C125.181 122 146 101.181 146 75.5C146 49.819 125.181 29 99.5 29ZM99.5 29H100C110 29 110 13 100 13H81L93 2L99.5 29ZM53 43V31H34V60L53 43ZM26 105.5C26 107.224 25.3152 108.877 24.0962 110.096C22.8772 111.315 21.2239 112 19.5 112C17.7761 112 16.1228 111.315 14.9038 110.096C13.6848 108.877 13 107.224 13 105.5C13 103.776 13.6848 102.123 14.9038 100.904C16.1228 99.6848 17.7761 99 19.5 99C21.2239 99 22.8772 99.6848 24.0962 100.904C25.3152 102.123 26 103.776 26 105.5V105.5ZM106 75.5C106 77.2239 105.315 78.8772 104.096 80.0962C102.877 81.3152 101.224 82 99.5 82C97.7761 82 96.1228 81.3152 94.9038 80.0962C93.6848 78.8772 93 77.2239 93 75.5C93 73.7761 93.6848 72.1228 94.9038 70.9038C96.1228 69.6848 97.7761 69 99.5 69C101.224 69 102.877 69.6848 104.096 70.9038C105.315 72.1228 106 73.7761 106 75.5Z" stroke="#9D32C9" stroke-width="4" stroke-miterlimit="10" stroke-linecap="round" stroke-linejoin="round"/>
</svg>
